<?xml version="1.0" encoding="utf-8"?>
<svg version="1.1" xmlns:xlink="http://www.w3.org/1999/xlink" width="24px" height="16px" xmlns="http://www.w3.org/2000/svg">
  <g transform="matrix(1 0 0 1 -960 -230 )">
    <path d="M 1.6 14.4  L 11.2 14.4  L 15.4 9.6  L 5.8 9.6  L 1.6 14.4  Z M 23.26875 0.25625  C 23.53125 0.427083333333332  23.7291666666667 0.654166666666665  23.8625 0.9375  C 23.9875 1.22083333333333  24.0270833333333 1.51875  23.98125 1.83125  C 23.9354166666667 2.14375  23.8083333333333 2.41666666666667  23.6 2.65  L 12.4 15.45  C 12.0833333333333 15.8166666666667  11.6833333333333 16  11.2 16  L 1.6 16  C 1.28333333333333 16  0.99375 15.9145833333333  0.73125 15.74375  C 0.46875 15.5729166666667  0.270833333333333 15.3458333333333  0.1375 15.0625  C 0.0125 14.7791666666667  -0.0270833333333333 14.48125  0.01875 14.16875  C 0.0645833333333333 13.85625  0.191666666666667 13.5833333333333  0.4 13.35  L 11.6 0.550000000000001  C 11.9166666666667 0.183333333333332  12.3166666666667 0  12.8 0  L 22.4 0  C 22.7166666666667 0  23.00625 0.0854166666666654  23.26875 0.25625  Z " fill-rule="nonzero" fill="#000000" stroke="none" transform="matrix(1 0 0 1 960 230 )" />
  </g>
</svg>