<?xml version="1.0" encoding="utf-8"?>
<svg version="1.1" xmlns:xlink="http://www.w3.org/1999/xlink" width="12px" height="12px" viewBox="357 210.5  12 12" xmlns="http://www.w3.org/2000/svg">
  <path d="M 363 210.5  C 366.36 210.5  369 213.14  369 216.5  C 369 219.86  366.36 222.5  363 222.5  C 359.64 222.5  357 219.86  357 216.5  C 357 213.14  359.64 210.5  363 210.5  Z " fill-rule="nonzero" fill="#ffffff" stroke="none" />
  <path d="M 363 211  C 366.08 211  368.5 213.42  368.5 216.5  C 368.5 219.58  366.08 222  363 222  C 359.92 222  357.5 219.58  357.5 216.5  C 357.5 213.42  359.92 211  363 211  Z " stroke-width="1" stroke="#797979" fill="none" />
  <path d="M 363 219.5  C 361.32 219.5  360 218.18  360 216.5  C 360 214.82  361.32 213.5  363 213.5  C 364.68 213.5  366 214.82  366 216.5  C 366 218.18  364.68 219.5  363 219.5  " fill-rule="nonzero" fill="#797979" stroke="none" />
</svg>